<?xml version="1.0" encoding="UTF-8" standalone="no"?>
<!DOCTYPE svg PUBLIC "-//W3C//DTD SVG 1.1//EN"
 "http://www.w3.org/Graphics/SVG/1.1/DTD/svg11.dtd">
<!-- Generated by graphviz version 2.38.0 (20140413.2041)
 -->
<!-- Title: controllers_diagram Pages: 1 -->
<svg width="633pt" height="645pt"
 viewBox="0.00 0.00 633.00 645.00" xmlns="http://www.w3.org/2000/svg" xmlns:xlink="http://www.w3.org/1999/xlink">
<g id="graph0" class="graph" transform="scale(1 1) rotate(0) translate(259.5 401.5)">
<title>controllers_diagram</title>
<polygon fill="none" stroke="none" points="-259.5,243.5 -259.5,-401.5 373.5,-401.5 373.5,243.5 -259.5,243.5"/>
<!-- _diagram_info -->
<g id="node1" class="node"><title>_diagram_info</title>
<text text-anchor="start" x="72" y="112.4" font-family="Times,serif" font-size="13.00">Controllers diagram</text>
<text text-anchor="start" x="72" y="126.4" font-family="Times,serif" font-size="13.00">Date: Mar 06 2018 &#45; 12:41</text>
<text text-anchor="start" x="72" y="140.4" font-family="Times,serif" font-size="13.00">Migration version: 20180306151157</text>
<text text-anchor="start" x="72" y="154.4" font-family="Times,serif" font-size="13.00">Generated by RailRoady 1.5.3</text>
<text text-anchor="start" x="72" y="168.4" font-family="Times,serif" font-size="13.00">http://railroady.prestonlee.com</text>
</g>
<!-- Users::OmniauthCallbacksController -->
<g id="node2" class="node"><title>Users::OmniauthCallbacksController</title>
<path fill="none" stroke="black" d="M76,63C76,63 270,63 270,63 276,63 282,57 282,51 282,51 282,-19 282,-19 282,-25 276,-31 270,-31 270,-31 76,-31 76,-31 70,-31 64,-25 64,-19 64,-19 64,51 64,51 64,57 70,63 76,63"/>
<text text-anchor="middle" x="173" y="-15.8" font-family="Times,serif" font-size="14.00">Users::OmniauthCallbacksController</text>
<polyline fill="none" stroke="black" points="64,-8 282,-8 "/>
<polyline fill="none" stroke="black" points="64,16 282,16 "/>
<polyline fill="none" stroke="black" points="64,40 282,40 "/>
<text text-anchor="start" x="72" y="55.2" font-family="Times,serif" font-size="14.00">_layout</text>
</g>
<!-- Users::SessionsController -->
<g id="node3" class="node"><title>Users::SessionsController</title>
<path fill="none" stroke="black" d="M220.5,-208.5C220.5,-208.5 357.5,-208.5 357.5,-208.5 363.5,-208.5 369.5,-214.5 369.5,-220.5 369.5,-220.5 369.5,-289.5 369.5,-289.5 369.5,-295.5 363.5,-301.5 357.5,-301.5 357.5,-301.5 220.5,-301.5 220.5,-301.5 214.5,-301.5 208.5,-295.5 208.5,-289.5 208.5,-289.5 208.5,-220.5 208.5,-220.5 208.5,-214.5 214.5,-208.5 220.5,-208.5"/>
<text text-anchor="middle" x="289" y="-286.3" font-family="Times,serif" font-size="14.00">Users::SessionsController</text>
<polyline fill="none" stroke="black" points="208.5,-278.5 369.5,-278.5 "/>
<text text-anchor="start" x="216.5" y="-263.3" font-family="Times,serif" font-size="14.00">configure_sign_in_params</text>
<polyline fill="none" stroke="black" points="208.5,-255.5 369.5,-255.5 "/>
<polyline fill="none" stroke="black" points="208.5,-231.5 369.5,-231.5 "/>
<text text-anchor="start" x="216.5" y="-216.3" font-family="Times,serif" font-size="14.00">_layout</text>
</g>
<!-- Users::UnlocksController -->
<g id="node4" class="node"><title>Users::UnlocksController</title>
<path fill="none" stroke="black" d="M-243.5,-33C-243.5,-33 -112.5,-33 -112.5,-33 -106.5,-33 -100.5,-39 -100.5,-45 -100.5,-45 -100.5,-115 -100.5,-115 -100.5,-121 -106.5,-127 -112.5,-127 -112.5,-127 -243.5,-127 -243.5,-127 -249.5,-127 -255.5,-121 -255.5,-115 -255.5,-115 -255.5,-45 -255.5,-45 -255.5,-39 -249.5,-33 -243.5,-33"/>
<text text-anchor="middle" x="-178" y="-111.8" font-family="Times,serif" font-size="14.00">Users::UnlocksController</text>
<polyline fill="none" stroke="black" points="-255.5,-104 -100.5,-104 "/>
<polyline fill="none" stroke="black" points="-255.5,-80 -100.5,-80 "/>
<polyline fill="none" stroke="black" points="-255.5,-56 -100.5,-56 "/>
<text text-anchor="start" x="-247.5" y="-40.8" font-family="Times,serif" font-size="14.00">_layout</text>
</g>
<!-- Users::RegistrationsController -->
<g id="node5" class="node"><title>Users::RegistrationsController</title>
<path fill="none" stroke="black" d="M76,-65C76,-65 258,-65 258,-65 264,-65 270,-71 270,-77 270,-77 270,-161 270,-161 270,-167 264,-173 258,-173 258,-173 76,-173 76,-173 70,-173 64,-167 64,-161 64,-161 64,-77 64,-77 64,-71 70,-65 76,-65"/>
<text text-anchor="middle" x="167" y="-157.8" font-family="Times,serif" font-size="14.00">Users::RegistrationsController</text>
<polyline fill="none" stroke="black" points="64,-150 270,-150 "/>
<text text-anchor="start" x="72" y="-134.8" font-family="Times,serif" font-size="14.00">configure_account_update_params</text>
<text text-anchor="start" x="72" y="-119.8" font-family="Times,serif" font-size="14.00">configure_sign_up_params</text>
<polyline fill="none" stroke="black" points="64,-112 270,-112 "/>
<polyline fill="none" stroke="black" points="64,-88 270,-88 "/>
<text text-anchor="start" x="72" y="-72.8" font-family="Times,serif" font-size="14.00">_layout</text>
</g>
<!-- Users::ConfirmationsController -->
<g id="node6" class="node"><title>Users::ConfirmationsController</title>
<path fill="none" stroke="black" d="M-147.5,-161C-147.5,-161 17.5,-161 17.5,-161 23.5,-161 29.5,-167 29.5,-173 29.5,-173 29.5,-243 29.5,-243 29.5,-249 23.5,-255 17.5,-255 17.5,-255 -147.5,-255 -147.5,-255 -153.5,-255 -159.5,-249 -159.5,-243 -159.5,-243 -159.5,-173 -159.5,-173 -159.5,-167 -153.5,-161 -147.5,-161"/>
<text text-anchor="middle" x="-65" y="-239.8" font-family="Times,serif" font-size="14.00">Users::ConfirmationsController</text>
<polyline fill="none" stroke="black" points="-159.5,-232 29.5,-232 "/>
<polyline fill="none" stroke="black" points="-159.5,-208 29.5,-208 "/>
<polyline fill="none" stroke="black" points="-159.5,-184 29.5,-184 "/>
<text text-anchor="start" x="-151.5" y="-168.8" font-family="Times,serif" font-size="14.00">_layout</text>
</g>
<!-- Users::PasswordsController -->
<g id="node7" class="node"><title>Users::PasswordsController</title>
<path fill="none" stroke="black" d="M-228.5,239C-228.5,239 -85.5,239 -85.5,239 -79.5,239 -73.5,233 -73.5,227 -73.5,227 -73.5,157 -73.5,157 -73.5,151 -79.5,145 -85.5,145 -85.5,145 -228.5,145 -228.5,145 -234.5,145 -240.5,151 -240.5,157 -240.5,157 -240.5,227 -240.5,227 -240.5,233 -234.5,239 -228.5,239"/>
<text text-anchor="middle" x="-157" y="160.2" font-family="Times,serif" font-size="14.00">Users::PasswordsController</text>
<polyline fill="none" stroke="black" points="-240.5,168 -73.5,168 "/>
<polyline fill="none" stroke="black" points="-240.5,192 -73.5,192 "/>
<polyline fill="none" stroke="black" points="-240.5,216 -73.5,216 "/>
<text text-anchor="start" x="-232.5" y="231.2" font-family="Times,serif" font-size="14.00">_layout</text>
</g>
<!-- ApplicationController -->
<g id="node8" class="node"><title>ApplicationController</title>
<path fill="none" stroke="black" d="M-228,95C-228,95 -116,95 -116,95 -110,95 -104,89 -104,83 -104,83 -104,13 -104,13 -104,7 -110,1 -116,1 -116,1 -228,1 -228,1 -234,1 -240,7 -240,13 -240,13 -240,83 -240,83 -240,89 -234,95 -228,95"/>
<text text-anchor="middle" x="-172" y="16.2" font-family="Times,serif" font-size="14.00">ApplicationController</text>
<polyline fill="none" stroke="black" points="-240,24 -104,24 "/>
<polyline fill="none" stroke="black" points="-240,48 -104,48 "/>
<polyline fill="none" stroke="black" points="-240,72 -104,72 "/>
<text text-anchor="start" x="-232" y="87.2" font-family="Times,serif" font-size="14.00">_layout</text>
</g>
<!-- ProductsController -->
<g id="node9" class="node"><title>ProductsController</title>
<path fill="none" stroke="black" d="M-67.5,-289C-67.5,-289 27.5,-289 27.5,-289 33.5,-289 39.5,-295 39.5,-301 39.5,-301 39.5,-385 39.5,-385 39.5,-391 33.5,-397 27.5,-397 27.5,-397 -67.5,-397 -67.5,-397 -73.5,-397 -79.5,-391 -79.5,-385 -79.5,-385 -79.5,-301 -79.5,-301 -79.5,-295 -73.5,-289 -67.5,-289"/>
<text text-anchor="middle" x="-20" y="-381.8" font-family="Times,serif" font-size="14.00">ProductsController</text>
<polyline fill="none" stroke="black" points="-79.5,-374 39.5,-374 "/>
<text text-anchor="start" x="-71.5" y="-358.8" font-family="Times,serif" font-size="14.00">destroy</text>
<text text-anchor="start" x="-71.5" y="-343.8" font-family="Times,serif" font-size="14.00">index</text>
<polyline fill="none" stroke="black" points="-79.5,-336 39.5,-336 "/>
<polyline fill="none" stroke="black" points="-79.5,-312 39.5,-312 "/>
<text text-anchor="start" x="-71.5" y="-296.8" font-family="Times,serif" font-size="14.00">_layout</text>
</g>
<!-- OrdersController -->
<g id="node10" class="node"><title>OrdersController</title>
<path fill="none" stroke="black" d="M76.5,-209C76.5,-209 161.5,-209 161.5,-209 167.5,-209 173.5,-215 173.5,-221 173.5,-221 173.5,-335 173.5,-335 173.5,-341 167.5,-347 161.5,-347 161.5,-347 76.5,-347 76.5,-347 70.5,-347 64.5,-341 64.5,-335 64.5,-335 64.5,-221 64.5,-221 64.5,-215 70.5,-209 76.5,-209"/>
<text text-anchor="middle" x="119" y="-331.8" font-family="Times,serif" font-size="14.00">OrdersController</text>
<polyline fill="none" stroke="black" points="64.5,-324 173.5,-324 "/>
<text text-anchor="start" x="72.5" y="-308.8" font-family="Times,serif" font-size="14.00">create</text>
<text text-anchor="start" x="72.5" y="-293.8" font-family="Times,serif" font-size="14.00">destroy</text>
<text text-anchor="start" x="72.5" y="-278.8" font-family="Times,serif" font-size="14.00">index</text>
<text text-anchor="start" x="72.5" y="-263.8" font-family="Times,serif" font-size="14.00">pagar</text>
<polyline fill="none" stroke="black" points="64.5,-256 173.5,-256 "/>
<polyline fill="none" stroke="black" points="64.5,-232 173.5,-232 "/>
<text text-anchor="start" x="72.5" y="-216.8" font-family="Times,serif" font-size="14.00">_layout</text>
</g>
<!-- UsersController -->
<g id="node11" class="node"><title>UsersController</title>
<path fill="none" stroke="black" d="M-51.5,111.5C-51.5,111.5 27.5,111.5 27.5,111.5 33.5,111.5 39.5,105.5 39.5,99.5 39.5,99.5 39.5,-89.5 39.5,-89.5 39.5,-95.5 33.5,-101.5 27.5,-101.5 27.5,-101.5 -51.5,-101.5 -51.5,-101.5 -57.5,-101.5 -63.5,-95.5 -63.5,-89.5 -63.5,-89.5 -63.5,99.5 -63.5,99.5 -63.5,105.5 -57.5,111.5 -51.5,111.5"/>
<text text-anchor="middle" x="-12" y="-86.3" font-family="Times,serif" font-size="14.00">UsersController</text>
<polyline fill="none" stroke="black" points="-63.5,-78.5 39.5,-78.5 "/>
<text text-anchor="start" x="-55.5" y="-63.3" font-family="Times,serif" font-size="14.00">create</text>
<text text-anchor="start" x="-55.5" y="-48.3" font-family="Times,serif" font-size="14.00">destroy</text>
<text text-anchor="start" x="-55.5" y="-33.3" font-family="Times,serif" font-size="14.00">edit</text>
<text text-anchor="start" x="-55.5" y="-18.3" font-family="Times,serif" font-size="14.00">index</text>
<text text-anchor="start" x="-55.5" y="-3.3" font-family="Times,serif" font-size="14.00">new</text>
<text text-anchor="start" x="-55.5" y="11.7" font-family="Times,serif" font-size="14.00">show</text>
<text text-anchor="start" x="-55.5" y="26.7" font-family="Times,serif" font-size="14.00">update</text>
<polyline fill="none" stroke="black" points="-63.5,34.5 39.5,34.5 "/>
<polyline fill="none" stroke="black" points="-63.5,58.5 39.5,58.5 "/>
<text text-anchor="start" x="-55.5" y="73.7" font-family="Times,serif" font-size="14.00">_layout</text>
<text text-anchor="start" x="-55.5" y="88.7" font-family="Times,serif" font-size="14.00">set_user</text>
<text text-anchor="start" x="-55.5" y="103.7" font-family="Times,serif" font-size="14.00">user_params</text>
</g>
</g>
</svg>
