<?xml version="1.0" encoding="UTF-8" standalone="no"?>
<!DOCTYPE svg PUBLIC "-//W3C//DTD SVG 1.1//EN"
 "http://www.w3.org/Graphics/SVG/1.1/DTD/svg11.dtd">
<!-- Generated by graphviz version 2.38.0 (20140413.2041)
 -->
<!-- Title: models_diagram Pages: 1 -->
<svg width="489pt" height="302pt"
 viewBox="0.00 0.00 489.34 302.00" xmlns="http://www.w3.org/2000/svg" xmlns:xlink="http://www.w3.org/1999/xlink">
<g id="graph0" class="graph" transform="scale(1 1) rotate(0) translate(4 298)">
<title>models_diagram</title>
<polygon fill="none" stroke="none" points="-4,4 -4,-298 485.343,-298 485.343,4 -4,4"/>
<!-- _diagram_info -->
<g id="node1" class="node"><title>_diagram_info</title>
<text text-anchor="start" x="8" y="-279.6" font-family="Times,serif" font-size="13.00">Models diagram</text>
<text text-anchor="start" x="8" y="-265.6" font-family="Times,serif" font-size="13.00">Date: Mar 06 2018 &#45; 12:41</text>
<text text-anchor="start" x="8" y="-251.6" font-family="Times,serif" font-size="13.00">Migration version: 20180306151157</text>
<text text-anchor="start" x="8" y="-237.6" font-family="Times,serif" font-size="13.00">Generated by RailRoady 1.5.3</text>
<text text-anchor="start" x="8" y="-223.6" font-family="Times,serif" font-size="13.00">http://railroady.prestonlee.com</text>
</g>
<!-- Product -->
<g id="node2" class="node"><title>Product</title>
<ellipse fill="none" stroke="black" cx="270" cy="-255" rx="38.1938" ry="18"/>
<text text-anchor="middle" x="270" y="-251.3" font-family="Times,serif" font-size="14.00">Product</text>
</g>
<!-- User -->
<g id="node3" class="node"><title>User</title>
<ellipse fill="none" stroke="black" cx="193" cy="-162" rx="27.0966" ry="18"/>
<text text-anchor="middle" x="193" y="-158.3" font-family="Times,serif" font-size="14.00">User</text>
</g>
<!-- Product&#45;&gt;User -->
<g id="edge2" class="edge"><title>Product&#45;&gt;User</title>
<path fill="none" stroke="#6a1f1d" d="M249.41,-229.666C237.946,-216.117 223.755,-199.347 212.475,-186.016"/>
<polygon fill="#6a1f1d" stroke="#6a1f1d" points="249.774,-230.097 252.799,-240.638 253.004,-233.914 256.234,-237.731 256.234,-237.731 256.234,-237.731 253.004,-233.914 259.669,-234.824 249.774,-230.097 249.774,-230.097"/>
<polygon fill="#6a1f1d" stroke="#6a1f1d" points="212.338,-185.854 209.314,-175.313 209.108,-182.037 205.879,-178.22 205.879,-178.22 205.879,-178.22 209.108,-182.037 202.443,-181.127 212.338,-185.854 212.338,-185.854"/>
</g>
<!-- Order -->
<g id="node6" class="node"><title>Order</title>
<ellipse fill="none" stroke="black" cx="262" cy="-18" rx="31.3957" ry="18"/>
<text text-anchor="middle" x="262" y="-14.3" font-family="Times,serif" font-size="14.00">Order</text>
</g>
<!-- Product&#45;&gt;Order -->
<g id="edge1" class="edge"><title>Product&#45;&gt;Order</title>
<path fill="none" stroke="#e2096c" d="M287.679,-231.286C312.78,-196.075 352.967,-126.678 327,-72 319.895,-57.0388 306.271,-44.9092 293.323,-36.0486"/>
<ellipse fill="none" stroke="#e2096c" cx="285.242" cy="-234.627" rx="4.00002" ry="4.00002"/>
<polygon fill="#e2096c" stroke="#e2096c" points="292.981,-35.8298 286.981,-26.651 288.769,-33.1359 284.557,-30.4421 284.557,-30.4421 284.557,-30.4421 288.769,-33.1359 282.132,-34.2331 292.981,-35.8298 292.981,-35.8298"/>
</g>
<!-- MasterOrder -->
<g id="node5" class="node"><title>MasterOrder</title>
<ellipse fill="none" stroke="black" cx="262" cy="-90" rx="55.7903" ry="18"/>
<text text-anchor="middle" x="262" y="-86.3" font-family="Times,serif" font-size="14.00">MasterOrder</text>
</g>
<!-- User&#45;&gt;MasterOrder -->
<g id="edge4" class="edge"><title>User&#45;&gt;MasterOrder</title>
<path fill="none" stroke="#4a17f4" d="M213.133,-140.576C221.087,-132.506 230.282,-123.178 238.535,-114.805"/>
<ellipse fill="none" stroke="#4a17f4" cx="210.105" cy="-143.647" rx="4.00002" ry="4.00002"/>
<polygon fill="#4a17f4" stroke="#4a17f4" points="238.767,-114.57 248.992,-110.607 242.277,-111.009 245.787,-107.448 245.787,-107.448 245.787,-107.448 242.277,-111.009 242.582,-104.289 238.767,-114.57 238.767,-114.57"/>
</g>
<!-- User&#45;&gt;Order -->
<g id="edge3" class="edge"><title>User&#45;&gt;Order</title>
<path fill="none" stroke="#ad1a4b" d="M188.847,-135.871C186.981,-117.246 187.06,-91.773 197,-72 204.386,-57.3078 217.906,-45.2638 230.71,-36.3909"/>
<ellipse fill="none" stroke="#ad1a4b" cx="189.334" cy="-139.929" rx="4.00001" ry="4.00001"/>
<polygon fill="#ad1a4b" stroke="#ad1a4b" points="230.99,-36.2091 241.827,-34.5348 235.183,-33.4851 239.376,-30.7612 239.376,-30.7612 239.376,-30.7612 235.183,-33.4851 236.924,-26.9876 230.99,-36.2091 230.99,-36.2091"/>
</g>
<!-- Billing -->
<g id="node4" class="node"><title>Billing</title>
<ellipse fill="none" stroke="black" cx="273" cy="-162" rx="35.194" ry="18"/>
<text text-anchor="middle" x="273" y="-158.3" font-family="Times,serif" font-size="14.00">Billing</text>
</g>
<!-- Billing&#45;&gt;MasterOrder -->
<g id="edge5" class="edge"><title>Billing&#45;&gt;MasterOrder</title>
<path fill="none" stroke="#32fd1d" d="M269.015,-135.64C268.116,-129.92 267.159,-123.828 266.249,-118.042"/>
<ellipse fill="none" stroke="#32fd1d" cx="269.66" cy="-139.745" rx="4.00001" ry="4.00001"/>
<polygon fill="#32fd1d" stroke="#32fd1d" points="266.24,-117.983 269.133,-107.406 265.464,-113.044 264.688,-108.104 264.688,-108.104 264.688,-108.104 265.464,-113.044 260.242,-108.803 266.24,-117.983 266.24,-117.983"/>
</g>
<!-- MasterOrder&#45;&gt;Order -->
<g id="edge6" class="edge"><title>MasterOrder&#45;&gt;Order</title>
<path fill="none" stroke="#f87eed" d="M262,-63.6398C262,-58.0629 262,-52.1319 262,-46.4761"/>
<ellipse fill="none" stroke="#f87eed" cx="262" cy="-67.6966" rx="4" ry="4"/>
<polygon fill="#f87eed" stroke="#f87eed" points="262,-46.1043 266.5,-36.1043 262,-41.1043 262,-36.1043 262,-36.1043 262,-36.1043 262,-41.1043 257.5,-36.1044 262,-46.1043 262,-46.1043"/>
</g>
<!-- ApplicationRecord -->
<g id="node7" class="node"><title>ApplicationRecord</title>
<ellipse fill="none" stroke="black" cx="404" cy="-255" rx="77.1866" ry="18"/>
<text text-anchor="middle" x="404" y="-251.3" font-family="Times,serif" font-size="14.00">ApplicationRecord</text>
</g>
</g>
</svg>
