<?xml version="1.0" encoding="UTF-8" standalone="no"?>
<!DOCTYPE svg PUBLIC "-//W3C//DTD SVG 1.1//EN"
 "http://www.w3.org/Graphics/SVG/1.1/DTD/svg11.dtd">
<!-- Generated by graphviz version 2.38.0 (20140413.2041)
 -->
<!-- Title: models_diagram Pages: 1 -->
<svg width="683pt" height="829pt"
 viewBox="0.00 0.00 682.84 829.00" xmlns="http://www.w3.org/2000/svg" xmlns:xlink="http://www.w3.org/1999/xlink">
<g id="graph0" class="graph" transform="scale(1 1) rotate(0) translate(4 825)">
<title>models_diagram</title>
<polygon fill="none" stroke="none" points="-4,4 -4,-825 678.843,-825 678.843,4 -4,4"/>
<!-- _diagram_info -->
<g id="node1" class="node"><title>_diagram_info</title>
<text text-anchor="start" x="34.5" y="-784.6" font-family="Times,serif" font-size="13.00">Models diagram</text>
<text text-anchor="start" x="34.5" y="-770.6" font-family="Times,serif" font-size="13.00">Date: Mar 06 2018 &#45; 12:41</text>
<text text-anchor="start" x="34.5" y="-756.6" font-family="Times,serif" font-size="13.00">Migration version: 20180306151157</text>
<text text-anchor="start" x="34.5" y="-742.6" font-family="Times,serif" font-size="13.00">Generated by RailRoady 1.5.3</text>
<text text-anchor="start" x="34.5" y="-728.6" font-family="Times,serif" font-size="13.00">http://railroady.prestonlee.com</text>
</g>
<!-- Product -->
<g id="node2" class="node"><title>Product</title>
<path fill="none" stroke="black" d="M270.5,-699.5C270.5,-699.5 490.5,-699.5 490.5,-699.5 496.5,-699.5 502.5,-705.5 502.5,-711.5 502.5,-711.5 502.5,-808.5 502.5,-808.5 502.5,-814.5 496.5,-820.5 490.5,-820.5 490.5,-820.5 270.5,-820.5 270.5,-820.5 264.5,-820.5 258.5,-814.5 258.5,-808.5 258.5,-808.5 258.5,-711.5 258.5,-711.5 258.5,-705.5 264.5,-699.5 270.5,-699.5"/>
<text text-anchor="middle" x="380.5" y="-805.3" font-family="Times,serif" font-size="14.00">Product</text>
<polyline fill="none" stroke="black" points="258.5,-797.5 502.5,-797.5 "/>
<text text-anchor="start" x="266.5" y="-782.3" font-family="Times,serif" font-size="14.00">id :bigint</text>
<text text-anchor="start" x="266.5" y="-767.3" font-family="Times,serif" font-size="14.00">name :character varying</text>
<text text-anchor="start" x="266.5" y="-752.3" font-family="Times,serif" font-size="14.00">photo :character varying</text>
<text text-anchor="start" x="266.5" y="-737.3" font-family="Times,serif" font-size="14.00">price :integer</text>
<text text-anchor="start" x="266.5" y="-722.3" font-family="Times,serif" font-size="14.00">created_at :timestamp without time zone</text>
<text text-anchor="start" x="266.5" y="-707.3" font-family="Times,serif" font-size="14.00">updated_at :timestamp without time zone</text>
</g>
<!-- User -->
<g id="node3" class="node"><title>User</title>
<path fill="none" stroke="black" d="M12,-361.5C12,-361.5 301,-361.5 301,-361.5 307,-361.5 313,-367.5 313,-373.5 313,-373.5 313,-650.5 313,-650.5 313,-656.5 307,-662.5 301,-662.5 301,-662.5 12,-662.5 12,-662.5 6,-662.5 0,-656.5 0,-650.5 0,-650.5 0,-373.5 0,-373.5 0,-367.5 6,-361.5 12,-361.5"/>
<text text-anchor="middle" x="156.5" y="-647.3" font-family="Times,serif" font-size="14.00">User</text>
<polyline fill="none" stroke="black" points="0,-639.5 313,-639.5 "/>
<text text-anchor="start" x="8" y="-624.3" font-family="Times,serif" font-size="14.00">id :bigint</text>
<text text-anchor="start" x="8" y="-609.3" font-family="Times,serif" font-size="14.00">email :character varying</text>
<text text-anchor="start" x="8" y="-594.3" font-family="Times,serif" font-size="14.00">encrypted_password :character varying</text>
<text text-anchor="start" x="8" y="-579.3" font-family="Times,serif" font-size="14.00">reset_password_token :character varying</text>
<text text-anchor="start" x="8" y="-564.3" font-family="Times,serif" font-size="14.00">reset_password_sent_at :timestamp without time zone</text>
<text text-anchor="start" x="8" y="-549.3" font-family="Times,serif" font-size="14.00">remember_created_at :timestamp without time zone</text>
<text text-anchor="start" x="8" y="-534.3" font-family="Times,serif" font-size="14.00">sign_in_count :integer</text>
<text text-anchor="start" x="8" y="-519.3" font-family="Times,serif" font-size="14.00">current_sign_in_at :timestamp without time zone</text>
<text text-anchor="start" x="8" y="-504.3" font-family="Times,serif" font-size="14.00">last_sign_in_at :timestamp without time zone</text>
<text text-anchor="start" x="8" y="-489.3" font-family="Times,serif" font-size="14.00">current_sign_in_ip :inet</text>
<text text-anchor="start" x="8" y="-474.3" font-family="Times,serif" font-size="14.00">last_sign_in_ip :inet</text>
<text text-anchor="start" x="8" y="-459.3" font-family="Times,serif" font-size="14.00">first_name :character varying</text>
<text text-anchor="start" x="8" y="-444.3" font-family="Times,serif" font-size="14.00">second_name :character varying</text>
<text text-anchor="start" x="8" y="-429.3" font-family="Times,serif" font-size="14.00">age :character varying</text>
<text text-anchor="start" x="8" y="-414.3" font-family="Times,serif" font-size="14.00">genere :character varying</text>
<text text-anchor="start" x="8" y="-399.3" font-family="Times,serif" font-size="14.00">created_at :timestamp without time zone</text>
<text text-anchor="start" x="8" y="-384.3" font-family="Times,serif" font-size="14.00">updated_at :timestamp without time zone</text>
<text text-anchor="start" x="8" y="-369.3" font-family="Times,serif" font-size="14.00">isadmin :boolean</text>
</g>
<!-- Product&#45;&gt;User -->
<g id="edge2" class="edge"><title>Product&#45;&gt;User</title>
<path fill="none" stroke="#24bd11" d="M319.353,-691.848C313.066,-684.943 306.508,-677.741 299.786,-670.359"/>
<polygon fill="#24bd11" stroke="#24bd11" points="319.543,-692.056 322.949,-702.48 322.909,-695.753 326.276,-699.45 326.276,-699.45 326.276,-699.45 322.909,-695.753 329.603,-696.421 319.543,-692.056 319.543,-692.056"/>
<polygon fill="#24bd11" stroke="#24bd11" points="299.746,-670.315 296.341,-659.891 296.38,-666.618 293.014,-662.921 293.014,-662.921 293.014,-662.921 296.38,-666.618 289.686,-665.951 299.746,-670.315 299.746,-670.315"/>
</g>
<!-- Order -->
<g id="node6" class="node"><title>Order</title>
<path fill="none" stroke="black" d="M306.5,-0.5C306.5,-0.5 526.5,-0.5 526.5,-0.5 532.5,-0.5 538.5,-6.5 538.5,-12.5 538.5,-12.5 538.5,-154.5 538.5,-154.5 538.5,-160.5 532.5,-166.5 526.5,-166.5 526.5,-166.5 306.5,-166.5 306.5,-166.5 300.5,-166.5 294.5,-160.5 294.5,-154.5 294.5,-154.5 294.5,-12.5 294.5,-12.5 294.5,-6.5 300.5,-0.5 306.5,-0.5"/>
<text text-anchor="middle" x="416.5" y="-151.3" font-family="Times,serif" font-size="14.00">Order</text>
<polyline fill="none" stroke="black" points="294.5,-143.5 538.5,-143.5 "/>
<text text-anchor="start" x="302.5" y="-128.3" font-family="Times,serif" font-size="14.00">id :bigint</text>
<text text-anchor="start" x="302.5" y="-113.3" font-family="Times,serif" font-size="14.00">payed :boolean</text>
<text text-anchor="start" x="302.5" y="-98.3" font-family="Times,serif" font-size="14.00">user_id :bigint</text>
<text text-anchor="start" x="302.5" y="-83.3" font-family="Times,serif" font-size="14.00">created_at :timestamp without time zone</text>
<text text-anchor="start" x="302.5" y="-68.3" font-family="Times,serif" font-size="14.00">updated_at :timestamp without time zone</text>
<text text-anchor="start" x="302.5" y="-53.3" font-family="Times,serif" font-size="14.00">price :double precision</text>
<text text-anchor="start" x="302.5" y="-38.3" font-family="Times,serif" font-size="14.00">quantity :integer</text>
<text text-anchor="start" x="302.5" y="-23.3" font-family="Times,serif" font-size="14.00">product_id :bigint</text>
<text text-anchor="start" x="302.5" y="-8.3" font-family="Times,serif" font-size="14.00">master_order_id :bigint</text>
</g>
<!-- Product&#45;&gt;Order -->
<g id="edge1" class="edge"><title>Product&#45;&gt;Order</title>
<path fill="none" stroke="#6314fd" d="M510.19,-699.567C549.656,-681.183 583.146,-665.134 584.5,-663 694.399,-489.823 651.673,-379.681 547.5,-203 541.598,-192.99 534.574,-183.348 526.888,-174.183"/>
<ellipse fill="none" stroke="#6314fd" cx="506.385" cy="-701.337" rx="4.00002" ry="4.00002"/>
<polygon fill="#6314fd" stroke="#6314fd" points="526.852,-174.142 523.681,-163.644 523.569,-170.37 520.287,-166.599 520.287,-166.599 520.287,-166.599 523.569,-170.37 516.892,-169.554 526.852,-174.142 526.852,-174.142"/>
</g>
<!-- MasterOrder -->
<g id="node5" class="node"><title>MasterOrder</title>
<path fill="none" stroke="black" d="M306.5,-203.5C306.5,-203.5 526.5,-203.5 526.5,-203.5 532.5,-203.5 538.5,-209.5 538.5,-215.5 538.5,-215.5 538.5,-312.5 538.5,-312.5 538.5,-318.5 532.5,-324.5 526.5,-324.5 526.5,-324.5 306.5,-324.5 306.5,-324.5 300.5,-324.5 294.5,-318.5 294.5,-312.5 294.5,-312.5 294.5,-215.5 294.5,-215.5 294.5,-209.5 300.5,-203.5 306.5,-203.5"/>
<text text-anchor="middle" x="416.5" y="-309.3" font-family="Times,serif" font-size="14.00">MasterOrder</text>
<polyline fill="none" stroke="black" points="294.5,-301.5 538.5,-301.5 "/>
<text text-anchor="start" x="302.5" y="-286.3" font-family="Times,serif" font-size="14.00">id :bigint</text>
<text text-anchor="start" x="302.5" y="-271.3" font-family="Times,serif" font-size="14.00">status :boolean</text>
<text text-anchor="start" x="302.5" y="-256.3" font-family="Times,serif" font-size="14.00">user_id :bigint</text>
<text text-anchor="start" x="302.5" y="-241.3" font-family="Times,serif" font-size="14.00">created_at :timestamp without time zone</text>
<text text-anchor="start" x="302.5" y="-226.3" font-family="Times,serif" font-size="14.00">updated_at :timestamp without time zone</text>
<text text-anchor="start" x="302.5" y="-211.3" font-family="Times,serif" font-size="14.00">billing_id :bigint</text>
</g>
<!-- User&#45;&gt;MasterOrder -->
<g id="edge4" class="edge"><title>User&#45;&gt;MasterOrder</title>
<path fill="none" stroke="#430169" d="M319.267,-356.998C328.514,-348.248 337.524,-339.723 346.094,-331.615"/>
<ellipse fill="none" stroke="#430169" cx="316.273" cy="-359.83" rx="4.00002" ry="4.00002"/>
<polygon fill="#430169" stroke="#430169" points="346.242,-331.475 356.599,-327.871 349.874,-328.038 353.506,-324.602 353.506,-324.602 353.506,-324.602 349.874,-328.038 350.413,-321.333 346.242,-331.475 346.242,-331.475"/>
</g>
<!-- User&#45;&gt;Order -->
<g id="edge3" class="edge"><title>User&#45;&gt;Order</title>
<path fill="none" stroke="#c328dc" d="M207.106,-353.415C227.255,-302.898 253.399,-248.343 285.5,-203 292.561,-193.026 300.598,-183.286 309.135,-173.949"/>
<ellipse fill="none" stroke="#c328dc" cx="205.518" cy="-357.441" rx="4.00001" ry="4.00001"/>
<polygon fill="#c328dc" stroke="#c328dc" points="309.237,-173.841 319.362,-169.63 312.659,-170.196 316.081,-166.55 316.081,-166.55 316.081,-166.55 312.659,-170.196 312.8,-163.47 309.237,-173.841 309.237,-173.841"/>
</g>
<!-- Billing -->
<g id="node4" class="node"><title>Billing</title>
<path fill="none" stroke="black" d="M343.5,-444C343.5,-444 563.5,-444 563.5,-444 569.5,-444 575.5,-450 575.5,-456 575.5,-456 575.5,-568 575.5,-568 575.5,-574 569.5,-580 563.5,-580 563.5,-580 343.5,-580 343.5,-580 337.5,-580 331.5,-574 331.5,-568 331.5,-568 331.5,-456 331.5,-456 331.5,-450 337.5,-444 343.5,-444"/>
<text text-anchor="middle" x="453.5" y="-564.8" font-family="Times,serif" font-size="14.00">Billing</text>
<polyline fill="none" stroke="black" points="331.5,-557 575.5,-557 "/>
<text text-anchor="start" x="339.5" y="-541.8" font-family="Times,serif" font-size="14.00">id :bigint</text>
<text text-anchor="start" x="339.5" y="-526.8" font-family="Times,serif" font-size="14.00">code :character varying</text>
<text text-anchor="start" x="339.5" y="-511.8" font-family="Times,serif" font-size="14.00">payment_method :character varying</text>
<text text-anchor="start" x="339.5" y="-496.8" font-family="Times,serif" font-size="14.00">amount :numeric(5,2)</text>
<text text-anchor="start" x="339.5" y="-481.8" font-family="Times,serif" font-size="14.00">currency :character varying</text>
<text text-anchor="start" x="339.5" y="-466.8" font-family="Times,serif" font-size="14.00">created_at :timestamp without time zone</text>
<text text-anchor="start" x="339.5" y="-451.8" font-family="Times,serif" font-size="14.00">updated_at :timestamp without time zone</text>
</g>
<!-- Billing&#45;&gt;MasterOrder -->
<g id="edge5" class="edge"><title>Billing&#45;&gt;MasterOrder</title>
<path fill="none" stroke="#705c4a" d="M442.189,-435.795C437.344,-403.583 431.72,-366.191 426.971,-334.621"/>
<ellipse fill="none" stroke="#705c4a" cx="442.795" cy="-439.824" rx="4.00001" ry="4.00001"/>
<polygon fill="#705c4a" stroke="#705c4a" points="426.95,-334.478 429.913,-323.92 426.206,-329.533 425.463,-324.589 425.463,-324.589 425.463,-324.589 426.206,-329.533 421.013,-325.258 426.95,-334.478 426.95,-334.478"/>
</g>
<!-- MasterOrder&#45;&gt;Order -->
<g id="edge6" class="edge"><title>MasterOrder&#45;&gt;Order</title>
<path fill="none" stroke="#8ecfbb" d="M416.5,-195.044C416.5,-189.128 416.5,-183.08 416.5,-177.012"/>
<ellipse fill="none" stroke="#8ecfbb" cx="416.5" cy="-199.066" rx="4" ry="4"/>
<polygon fill="#8ecfbb" stroke="#8ecfbb" points="416.5,-176.8 421,-166.8 416.5,-171.8 416.5,-166.8 416.5,-166.8 416.5,-166.8 416.5,-171.8 412,-166.8 416.5,-176.8 416.5,-176.8"/>
</g>
<!-- ApplicationRecord -->
<g id="node7" class="node"><title>ApplicationRecord</title>
<ellipse fill="none" stroke="black" cx="597.5" cy="-760" rx="77.1866" ry="18"/>
<text text-anchor="middle" x="597.5" y="-756.3" font-family="Times,serif" font-size="14.00">ApplicationRecord</text>
</g>
</g>
</svg>
